<?xml version="1.0" encoding="UTF-8" standalone="no"?>
<svg
   version="1.0"
   width="1301.000000pt"
   height="1301.000000pt"
   viewBox="0 0 1301.000000 1301.000000"
   preserveAspectRatio="xMidYMid meet"
   id="svg6"
   sodipodi:docname="clipart4298273.svg"
   inkscape:version="1.1.1 (3bf5ae0d25, 2021-09-20)"
   xmlns:inkscape="http://www.inkscape.org/namespaces/inkscape"
   xmlns:sodipodi="http://sodipodi.sourceforge.net/DTD/sodipodi-0.dtd"
   xmlns="http://www.w3.org/2000/svg"
   xmlns:svg="http://www.w3.org/2000/svg">
  <defs
     id="defs10" />
  <sodipodi:namedview
     id="namedview8"
     pagecolor="#ffffff"
     bordercolor="#666666"
     borderopacity="1.0"
     inkscape:pageshadow="2"
     inkscape:pageopacity="0.0"
     inkscape:pagecheckerboard="0"
     inkscape:document-units="pt"
     showgrid="false"
     inkscape:zoom="0.50326672"
     inkscape:cx="867.33333"
     inkscape:cy="549.41046"
     inkscape:window-width="1920"
     inkscape:window-height="1009"
     inkscape:window-x="2552"
     inkscape:window-y="156"
     inkscape:window-maximized="1"
     inkscape:current-layer="g4" />
  <g
     transform="translate(0.000000,1301.000000) scale(0.100000,-0.100000)"
     fill="#000000"
     stroke="none"
     id="g4">
    <path
       id="path2"
       style="stroke-width:0.999997;fill:#dadada;fill-opacity:1"
       d="M 10510.009,9000.0084 H 9010.0085 v 1499.9996 1500 h 1282.9985 c 1246,0 1286.001,-1.009 1361.001,-20.009 43,-11 100.994,-31.993 128.994,-46.993 102,-56 192.006,-168 216.006,-270 5,-21 8.99,-628.996 9.99,-1350.996 l 1.011,-1312.0016 z m 1497.993,-4333.0079 -3.003,-3331.992 -31.992,-67.998 c -40,-85.0005 -119.005,-164.001 -205.005,-206.001 -127,-62.99999 -78.005,-61.01099 -1480.005,-61.01099 H 9010.0085 v 3500.00999 3499.995 h 1500.0005 1500 z M 8010.0037,10500.008 V 9000.0084 h -1500 -1500 v 1499.9996 1500 h 1500 1500 z m 0,-5999.9995 V 999.99851 h -1500 -1500 v 3500.00999 3499.995 h 1500 1500 z M 4009.9987,10500.008 V 9000.0084 h -1500 -1500 l 2.007,1331.9966 3.003,1332.994 31.992,67.998 c 59.0002,123 168.999,209.002 318.999,247.002 75,19 115.0012,20.009 1361.001,20.009 h 1282.998 z m 0,-5999.9995 V 999.99851 h -1276.992 c -1403.0003,0 -1354.0013,-1.989 -1481.001,61.01099 -86.0003,42 -165.0053,121.0005 -205.005,206.001 l -31.992,67.998 -3.003,3331.992 -2.007,3333.003 h 1500 1500 z"
       sodipodi:nodetypes="ccccsccccccccccscccccccccccccccccccccccccccccccssccccscccccccc" />
  </g>
</svg>
