<?xml version="1.0" encoding="UTF-8" standalone="no"?>
<svg
   viewBox="-333 -36 423.1 120"
   id="klipfolio-logo"
   version="1.1"
   sodipodi:docname="klipfolio-logo-white.svg"
   inkscape:version="1.1.1 (3bf5ae0d25, 2021-09-20)"
   xmlns:inkscape="http://www.inkscape.org/namespaces/inkscape"
   xmlns:sodipodi="http://sodipodi.sourceforge.net/DTD/sodipodi-0.dtd"
   xmlns="http://www.w3.org/2000/svg"
   xmlns:svg="http://www.w3.org/2000/svg">
  <defs
     id="defs29" />
  <sodipodi:namedview
     id="namedview27"
     pagecolor="#ffffff"
     bordercolor="#666666"
     borderopacity="1.0"
     inkscape:pageshadow="2"
     inkscape:pageopacity="0.0"
     inkscape:pagecheckerboard="0"
     showgrid="false"
     inkscape:zoom="2.4994091"
     inkscape:cx="-7.0016548"
     inkscape:cy="143.03381"
     inkscape:window-width="2560"
     inkscape:window-height="1369"
     inkscape:window-x="-8"
     inkscape:window-y="-8"
     inkscape:window-maximized="1"
     inkscape:current-layer="klipfolio-logo" />
  <path
     d="M85.2 7.2c1.9 1.9 4.9.2 4.9-1.8V-29c0-2-1.6-3.6-3.6-3.6H52.1c-2 0-3.8 2.9-1.9 4.8l35 35z"
     style="fill:#EE3524;"
     id="path20" />
  <path
     class="klipfolio-logo-path"
     d="M-333-29.5c0-1.5 1.2-2.7 2.8-2.7h15.2c1.5 0 2.8 1.2 2.8 2.7V3.9c0 1.5.6 1.7 1.4.4l20.3-34.1c.8-1.3 2.6-2.4 4.2-2.4h15.4c1.5 0 2.1 1 1.2 2.3L-290.3-.3c-.9 1.2-1.1 3.4-.5 4.8l23.5 53.7c.6 1.4-.2 2.5-1.7 2.5h-15.9c-1.5 0-3.2-1.1-3.8-2.5l-14.7-37.8c-.5-1.4-1.7-1.5-2.6-.3l-4.7 6.7c-.9 1.2-1.6 3.5-1.6 5v26.1c0 1.5-1.3 2.7-2.8 2.7h-15.1c-1.5 0-2.8-1.2-2.8-2.7v-87.4zm69.5 0c0-1.5 1.3-2.7 2.8-2.7h13.9c1.5 0 2.8 1.2 2.8 2.7v87.4c0 1.5-1.3 2.7-2.8 2.7h-13.9c-1.5 0-2.8-1.2-2.8-2.7v-87.4zm47.3 13c0 1.5-1.3 2.7-2.8 2.7h-14.1c-1.5 0-2.8-1.2-2.8-2.7V-30c0-1.5 1.3-2.7 2.8-2.7h14.1c1.5 0 2.8 1.2 2.8 2.7v13.5zm-19.6 11.2c0-1.5 1.3-2.7 2.8-2.7h13.9c1.5 0 2.8 1.2 2.8 2.7V58c0 1.5-1.2 2.7-2.8 2.7H-233c-1.5 0-2.8-1.2-2.8-2.7V-5.3zm27.8 0c0-1.5 1.3-2.7 2.8-2.7h12.5c1.5 0 2.8 1.2 2.8 2.7v4.8c0 1.5 1.3 1.7 1.7.6 1.5-3.5 6.7-9 14.1-9 6.4 0 11.7 2.8 15.9 8.4s6.4 14.2 6.4 25.7c0 12.1-2.1 21.2-6.2 27.3-4.1 6.1-10 9.2-17.5 9.2-5.4 0-9.8-2-13.3-6.1v25.7c0 1.5-1.3 2.7-2.8 2.7h-13.6c-1.5 0-2.8-1.2-2.8-2.7V-5.3zm19.2 35c0 1.5.1 4 .1 5.5 0 0 .4 8.1 1.5 10.1s3.3 2.9 6.6 2.9c2.9 0 5.1-1.3 6.6-3.9 1.4-2.6 2.1-9 2.1-19.1 0-8.4-.6-14.1-1.9-17.1-1.2-3-3.3-4.5-6.3-4.5-2.4 0-4.5.9-6.2 2.8-1.7 1.9-2.6 6.2-2.6 13.1l.1 10.2zm65.6-37.8v66c0 1.5-1.3 2.7-2.8 2.7h-13.1c-1.5 0-2.8-1.2-2.8-2.7 0 0 .1-67.2.1-68.7 0 0 .4-9.1 1.5-12.5 1-3.4 3.2-6.3 6.6-8.9 3.4-2.5 8-3.8 13.8-3.8 2.5 0 5 .2 7.4.6 1.5.2 2.5 1.2 2.5 2.6v9.8c0 1.5-1.2 2.6-2.8 2.5h-1.6c-3.7 0-6.1.8-7.2 2.3-1.1 1.6-1.6 5-1.6 10.1zm68.7 34.3c0 23.9-9.4 35.8-28.3 35.8s-28.4-11.9-28.4-35.8c0-23.8 9.5-35.7 28.4-35.7s28.3 11.9 28.3 35.7zm-20.1.1c0-8.8-.6-14.7-1.8-17.8s-3.4-4.6-6.4-4.6c-2.9 0-5.1 1.5-6.3 4.4-1.3 2.9-1.9 8.9-1.9 18 0 8.4.5 14.2 1.7 17.5 1.1 3.3 3.3 4.9 6.6 4.9 3.2 0 5.3-1.6 6.5-4.9 1-3.2 1.6-9.1 1.6-17.5zM-48-29.5c0-1.5 1.2-2.7 2.8-2.7h13.9c1.5 0 2.8 1.2 2.8 2.7v87.4c0 1.5-1.2 2.7-2.8 2.7h-13.9c-1.5 0-2.8-1.2-2.8-2.7v-87.4zm47.4 13c0 1.5-1.3 2.7-2.8 2.7h-14.2c-1.5 0-2.8-1.2-2.8-2.7V-30c0-1.5 1.2-2.7 2.8-2.7h14.1c1.5 0 2.8 1.2 2.8 2.7l.1 13.5zM-20.2-5.3c0-1.5 1.2-2.7 2.8-2.7h13.9C-2-8-.7-6.8-.7-5.3V58c0 1.5-1.3 2.7-2.8 2.7h-13.9c-1.5 0-2.8-1.2-2.8-2.7V-5.3zm82.7 31.5c0 23.9-9.4 35.8-28.3 35.8S5.8 50.1 5.8 26.2c0-23.8 9.5-35.7 28.4-35.7C53-9.5 62.5 2.4 62.5 26.2zm-20.1.1c0-8.8-.6-14.7-1.8-17.8s-3.3-4.6-6.4-4.6c-2.9 0-5.1 1.5-6.4 4.4s-1.9 8.9-1.9 18c0 8.4.5 14.2 1.7 17.5 1.1 3.3 3.3 4.9 6.6 4.9 3.2 0 5.3-1.6 6.5-4.9 1.1-3.2 1.7-9.1 1.7-17.5z"
     id="path22"
     style="fill:#ffffff;fill-opacity:1" />
  <path
     class="klipfolio-logo-path"
     d="M-111 4.3c0 1.5-1.3 2.7-2.8 2.7h-33.3c-1.5 0-2.8-1.2-2.8-2.7v-9.6c0-1.5 1.3-2.7 2.8-2.7h33.3c1.5 0 2.8 1.2 2.8 2.7v9.6z"
     id="path24"
     style="fill:#ffffff;fill-opacity:1" />
</svg>
